<svg xmlns="http://www.w3.org/2000/svg" xmlns:xlink="http://www.w3.org/1999/xlink" contentStyleType="text/css" height="457px" preserveAspectRatio="none" style="width:453px;height:457px;background:#FFFFFF;" version="1.1" viewBox="0 0 453 457" width="453px" zoomAndPan="magnify"><defs/><g><!--class Capteur--><g id="elem_Capteur"><rect codeLine="1" fill="#F1F1F1" height="129.4844" id="Capteur" rx="2.5" ry="2.5" style="stroke:#181818;stroke-width:0.5;" width="218.3838" x="117.02" y="196.49"/><ellipse cx="193.9756" cy="212.49" fill="#ADD1B2" rx="11" ry="11" style="stroke:#181818;stroke-width:1;"/><path d="M196.9443,218.1306 Q196.3662,218.4275 195.7256,218.5681 Q195.0849,218.7244 194.3818,218.7244 Q191.8818,218.7244 190.5537,217.0837 Q189.2412,215.4275 189.2412,212.3025 Q189.2412,209.1775 190.5537,207.5212 Q191.8818,205.865 194.3818,205.865 Q195.0849,205.865 195.7256,206.0212 Q196.3818,206.1775 196.9443,206.4744 L196.9443,209.1931 Q196.3193,208.615 195.7256,208.3494 Q195.1318,208.0681 194.5068,208.0681 Q193.1631,208.0681 192.4756,209.1462 Q191.7881,210.2087 191.7881,212.3025 Q191.7881,214.3962 192.4756,215.4744 Q193.1631,216.5369 194.5068,216.5369 Q195.1318,216.5369 195.7256,216.2712 Q196.3193,215.99 196.9443,215.4119 L196.9443,218.1306 Z " fill="#000000"/><text fill="#000000" font-family="sans-serif" font-size="14" lengthAdjust="spacing" textLength="55.9727" x="214.4756" y="217.3367">Capteur</text><line style="stroke:#181818;stroke-width:0.5;" x1="118.02" x2="334.4038" y1="228.49" y2="228.49"/><ellipse cx="128.02" cy="242.1384" fill="none" rx="3" ry="3" style="stroke:#038048;stroke-width:1;"/><text fill="#000000" font-family="sans-serif" font-size="14" lengthAdjust="spacing" textLength="81.0332" x="137.02" y="245.4851">id : number</text><ellipse cx="128.02" cy="258.4353" fill="none" rx="3" ry="3" style="stroke:#038048;stroke-width:1;"/><text fill="#000000" font-family="sans-serif" font-size="14" lengthAdjust="spacing" textLength="84.8818" x="137.02" y="261.782">nom : string</text><ellipse cx="128.02" cy="274.7322" fill="none" rx="3" ry="3" style="stroke:#038048;stroke-width:1;"/><text fill="#000000" font-family="sans-serif" font-size="14" lengthAdjust="spacing" textLength="192.3838" x="137.02" y="278.0789">dateDerniereLecture : Date</text><line style="stroke:#181818;stroke-width:0.5;" x1="118.02" x2="334.4038" y1="285.3806" y2="285.3806"/><ellipse cx="128.02" cy="299.0291" fill="#84BE84" rx="3" ry="3" style="stroke:#038048;stroke-width:1;"/><text fill="#000000" font-family="sans-serif" font-size="14" lengthAdjust="spacing" textLength="176.415" x="137.02" y="302.3757">obtenirDonnees() : string</text><ellipse cx="128.02" cy="315.3259" fill="#84BE84" rx="3" ry="3" style="stroke:#038048;stroke-width:1;"/><text fill="#000000" font-family="sans-serif" font-size="14" lengthAdjust="spacing" textLength="151.7852" x="137.02" y="318.6726">afficherInfos() : string</text></g><!--class CapteurTemperature--><g id="elem_CapteurTemperature"><rect codeLine="9" fill="#F1F1F1" height="64.2969" id="CapteurTemperature" rx="2.5" ry="2.5" style="stroke:#181818;stroke-width:0.5;" width="202.415" x="7" y="385.97"/><ellipse cx="32.383" cy="401.97" fill="#ADD1B2" rx="11" ry="11" style="stroke:#181818;stroke-width:1;"/><path d="M35.3517,407.6106 Q34.7736,407.9075 34.133,408.0481 Q33.4923,408.2044 32.7892,408.2044 Q30.2892,408.2044 28.9611,406.5637 Q27.6486,404.9075 27.6486,401.7825 Q27.6486,398.6575 28.9611,397.0012 Q30.2892,395.345 32.7892,395.345 Q33.4923,395.345 34.133,395.5012 Q34.7892,395.6575 35.3517,395.9544 L35.3517,398.6731 Q34.7267,398.095 34.133,397.8294 Q33.5392,397.5481 32.9142,397.5481 Q31.5705,397.5481 30.883,398.6262 Q30.1955,399.6887 30.1955,401.7825 Q30.1955,403.8762 30.883,404.9544 Q31.5705,406.0169 32.9142,406.0169 Q33.5392,406.0169 34.133,405.7512 Q34.7267,405.47 35.3517,404.8919 L35.3517,407.6106 Z " fill="#000000"/><text fill="#000000" font-family="sans-serif" font-size="14" lengthAdjust="spacing" textLength="147.3418" x="48.6903" y="406.8167">CapteurTemperature</text><line style="stroke:#181818;stroke-width:0.5;" x1="8" x2="208.415" y1="417.97" y2="417.97"/><line style="stroke:#181818;stroke-width:0.5;" x1="8" x2="208.415" y1="425.97" y2="425.97"/><ellipse cx="18" cy="439.6184" fill="#84BE84" rx="3" ry="3" style="stroke:#038048;stroke-width:1;"/><text fill="#000000" font-family="sans-serif" font-size="14" lengthAdjust="spacing" textLength="176.415" x="27" y="442.9651">obtenirDonnees() : string</text></g><!--class CapteurHumidite--><g id="elem_CapteurHumidite"><rect codeLine="13" fill="#F1F1F1" height="64.2969" id="CapteurHumidite" rx="2.5" ry="2.5" style="stroke:#181818;stroke-width:0.5;" width="202.415" x="244" y="385.97"/><ellipse cx="281.7861" cy="401.97" fill="#ADD1B2" rx="11" ry="11" style="stroke:#181818;stroke-width:1;"/><path d="M284.7548,407.6106 Q284.1767,407.9075 283.5361,408.0481 Q282.8955,408.2044 282.1923,408.2044 Q279.6923,408.2044 278.3642,406.5637 Q277.0517,404.9075 277.0517,401.7825 Q277.0517,398.6575 278.3642,397.0012 Q279.6923,395.345 282.1923,395.345 Q282.8955,395.345 283.5361,395.5012 Q284.1923,395.6575 284.7548,395.9544 L284.7548,398.6731 Q284.1298,398.095 283.5361,397.8294 Q282.9423,397.5481 282.3173,397.5481 Q280.9736,397.5481 280.2861,398.6262 Q279.5986,399.6887 279.5986,401.7825 Q279.5986,403.8762 280.2861,404.9544 Q280.9736,406.0169 282.3173,406.0169 Q282.9423,406.0169 283.5361,405.7512 Q284.1298,405.47 284.7548,404.8919 L284.7548,407.6106 Z " fill="#000000"/><text fill="#000000" font-family="sans-serif" font-size="14" lengthAdjust="spacing" textLength="119.7793" x="300.8497" y="406.8167">CapteurHumidite</text><line style="stroke:#181818;stroke-width:0.5;" x1="245" x2="445.415" y1="417.97" y2="417.97"/><line style="stroke:#181818;stroke-width:0.5;" x1="245" x2="445.415" y1="425.97" y2="425.97"/><ellipse cx="255" cy="439.6184" fill="#84BE84" rx="3" ry="3" style="stroke:#038048;stroke-width:1;"/><text fill="#000000" font-family="sans-serif" font-size="14" lengthAdjust="spacing" textLength="176.415" x="264" y="442.9651">obtenirDonnees() : string</text></g><!--class Dashboard--><g id="elem_Dashboard"><rect codeLine="17" fill="#F1F1F1" height="129.4844" id="Dashboard" rx="2.5" ry="2.5" style="stroke:#181818;stroke-width:0.5;" width="304.9404" x="73.74" y="7"/><ellipse cx="183.8601" cy="23" fill="#ADD1B2" rx="11" ry="11" style="stroke:#181818;stroke-width:1;"/><path d="M186.8289,28.6406 Q186.2507,28.9375 185.6101,29.0781 Q184.9695,29.2344 184.2664,29.2344 Q181.7664,29.2344 180.4382,27.5938 Q179.1257,25.9375 179.1257,22.8125 Q179.1257,19.6875 180.4382,18.0313 Q181.7664,16.375 184.2664,16.375 Q184.9695,16.375 185.6101,16.5313 Q186.2664,16.6875 186.8289,16.9844 L186.8289,19.7031 Q186.2039,19.125 185.6101,18.8594 Q185.0164,18.5781 184.3914,18.5781 Q183.0476,18.5781 182.3601,19.6563 Q181.6726,20.7188 181.6726,22.8125 Q181.6726,24.9063 182.3601,25.9844 Q183.0476,27.0469 184.3914,27.0469 Q185.0164,27.0469 185.6101,26.7813 Q186.2039,26.5 186.8289,25.9219 L186.8289,28.6406 Z " fill="#000000"/><text fill="#000000" font-family="sans-serif" font-size="14" lengthAdjust="spacing" textLength="76.2002" x="204.3601" y="27.8467">Dashboard</text><line style="stroke:#181818;stroke-width:0.5;" x1="74.74" x2="377.6804" y1="39" y2="39"/><ellipse cx="84.74" cy="52.6484" fill="none" rx="3" ry="3" style="stroke:#038048;stroke-width:1;"/><text fill="#000000" font-family="sans-serif" font-size="14" lengthAdjust="spacing" textLength="141.7021" x="93.74" y="55.9951">capteurs : Capteur[]</text><line style="stroke:#181818;stroke-width:0.5;" x1="74.74" x2="377.6804" y1="63.2969" y2="63.2969"/><ellipse cx="84.74" cy="76.9453" fill="#84BE84" rx="3" ry="3" style="stroke:#038048;stroke-width:1;"/><text fill="#000000" font-family="sans-serif" font-size="14" lengthAdjust="spacing" textLength="278.9404" x="93.74" y="80.292">ajouterCapteur(capteur: Capteur) : void</text><ellipse cx="84.74" cy="93.2422" fill="#84BE84" rx="3" ry="3" style="stroke:#038048;stroke-width:1;"/><text fill="#000000" font-family="sans-serif" font-size="14" lengthAdjust="spacing" textLength="258.3164" x="93.74" y="96.5889">supprimerCapteur(id: number) : void</text><ellipse cx="84.74" cy="109.5391" fill="#84BE84" rx="3" ry="3" style="stroke:#038048;stroke-width:1;"/><text fill="#000000" font-family="sans-serif" font-size="14" lengthAdjust="spacing" textLength="170.7002" x="93.74" y="112.8857">afficherCapteurs() : void</text><ellipse cx="84.74" cy="125.8359" fill="#84BE84" rx="3" ry="3" style="stroke:#038048;stroke-width:1;"/><text fill="#000000" font-family="sans-serif" font-size="14" lengthAdjust="spacing" textLength="200.2793" x="93.74" y="129.1826">mettreAJourDonnees() : void</text></g><!--reverse link Capteur to CapteurTemperature--><g id="link_Capteur_CapteurTemperature"><path codeLine="25" d="M166.6208,340.4475 C151.0008,360.9475 145.3,368.43 132.25,385.56 " fill="none" id="Capteur-backto-CapteurTemperature" style="stroke:#181818;stroke-width:1;"/><polygon fill="none" points="177.53,326.13,161.8483,336.8111,171.3933,344.0838,177.53,326.13" style="stroke:#181818;stroke-width:1;"/></g><!--reverse link Capteur to CapteurHumidite--><g id="link_Capteur_CapteurHumidite"><path codeLine="26" d="M286.2664,340.4037 C302.0164,360.9037 307.8,368.43 320.96,385.56 " fill="none" id="Capteur-backto-CapteurHumidite" style="stroke:#181818;stroke-width:1;"/><polygon fill="none" points="275.3,326.13,281.5085,344.0592,291.0243,336.7482,275.3,326.13" style="stroke:#181818;stroke-width:1;"/></g><!--reverse link Dashboard to Capteur--><g id="link_Dashboard_Capteur"><path codeLine="27" d="M226.21,148.74 C226.21,167.94 226.21,177 226.21,196.2 " fill="none" id="Dashboard-backto-Capteur" style="stroke:#181818;stroke-width:1;"/><polygon fill="#181818" points="226.21,136.74,222.21,142.74,226.21,148.74,230.21,142.74,226.21,136.74" style="stroke:#181818;stroke-width:1;"/></g><!--SRC=[bP6nJWCn44Jx-mgN2IW_4AL1N068aYwYyDbpP16sJ-irJU3VCR7DSL4aXCkPjwETjNdJCQfRFGaIgsEdyhicgxRA9pU0Y-23oqeK9lzI5Ai5FTWJ68ymaXYPwBDQ_308F74Vl0VYQdqshiUHp05yxyUmS3-xplnUwGbk0kjJ_l6lwFFXk-J8alndijVnC0JDjisO4XKpMrFtpxN3QqW2hkggWZ_OT_fx85lWcAQ9oSqusNRY9TWkKxcovMmxY31k7a9Qr3W1kKJxoDt7PdFXX1VzTgLkxdurkry0]--></g></svg>